<?xml version="1.0" encoding="UTF-8" standalone="no"?>
<!DOCTYPE svg PUBLIC "-//W3C//DTD SVG 1.1//EN"
 "http://www.w3.org/Graphics/SVG/1.1/DTD/svg11.dtd">
<!-- Generated by graphviz version 2.40.1 (0)
 -->
<!-- Title: G Pages: 1 -->
<svg width="1107pt" height="192pt"
 viewBox="0.00 0.00 1106.66 192.00" xmlns="http://www.w3.org/2000/svg" xmlns:xlink="http://www.w3.org/1999/xlink">
<g id="graph0" class="graph" transform="scale(1 1) rotate(0) translate(4 188)">
<title>G</title>
<polygon fill="#ffffff" stroke="transparent" points="-4,4 -4,-188 1102.6644,-188 1102.6644,4 -4,4"/>
<g id="clust1" class="cluster">
<title>cluster_interface</title>
<polygon fill="none" stroke="#000000" points="74,-8 74,-176 1024.6644,-176 1024.6644,-8 74,-8"/>
<text text-anchor="middle" x="549.3322" y="-160.8" font-family="Times,serif" font-size="14.00" fill="#000000">Interface: GenerateImageClassifierBlackboxSaliency</text>
</g>
<g id="clust2" class="cluster">
<title>cluster_inputs</title>
<polygon fill="none" stroke="#000000" points="82,-16 82,-145 307.2814,-145 307.2814,-16 82,-16"/>
<text text-anchor="middle" x="194.6407" y="-129.8" font-family="Times,serif" font-size="14.00" fill="#000000">Inputs</text>
</g>
<g id="clust4" class="cluster">
<title>cluster_impl</title>
<polygon fill="none" stroke="#000000" points="327.2814,-43 327.2814,-118 788.2814,-118 788.2814,-43 327.2814,-43"/>
<text text-anchor="middle" x="557.7814" y="-102.8" font-family="Times,serif" font-size="14.00" fill="#000000">Implementation: Perturb&#45;Occlude</text>
</g>
<g id="clust5" class="cluster">
<title>cluster_outputs</title>
<polygon fill="none" stroke="#000000" points="808.2814,-43 808.2814,-118 1016.6644,-118 1016.6644,-43 808.2814,-43"/>
<text text-anchor="middle" x="912.4729" y="-102.8" font-family="Times,serif" font-size="14.00" fill="#000000">Outputs</text>
</g>
<!-- img -->
<g id="node1" class="node">
<title>img</title>
<ellipse fill="#add8e6" stroke="#000000" cx="194.6407" cy="-96" rx="40.0939" ry="18"/>
<text text-anchor="middle" x="194.6407" y="-92.3" font-family="Times,serif" font-size="14.00" fill="#000000">Image</text>
</g>
<!-- p -->
<g id="node4" class="node">
<title>p</title>
<polygon fill="#00ff00" stroke="#000000" points="451.2814,-87 335.2814,-87 335.2814,-51 451.2814,-51 451.2814,-87"/>
<text text-anchor="middle" x="393.2814" y="-65.3" font-family="Times,serif" font-size="14.00" fill="#000000">PerturbImage</text>
</g>
<!-- img&#45;&gt;p -->
<g id="edge2" class="edge">
<title>img&#45;&gt;p</title>
<path fill="none" stroke="#000000" d="M233.4122,-90.73C259.3807,-87.2003 294.2793,-82.4567 324.8445,-78.3022"/>
<polygon fill="#000000" stroke="#000000" points="317.9477,-82.9318 327.2814,-77.9185 316.8586,-76.017 317.9477,-82.9318"/>
</g>
<!-- bb -->
<g id="node2" class="node">
<title>bb</title>
<ellipse fill="#add8e6" stroke="#000000" cx="194.6407" cy="-42" rx="104.7816" ry="18"/>
<text text-anchor="middle" x="194.6407" y="-38.3" font-family="Times,serif" font-size="14.00" fill="#000000">Black&#45;Box Classifier</text>
</g>
<!-- bb&#45;&gt;p -->
<g id="edge3" class="edge">
<title>bb&#45;&gt;p</title>
<path fill="none" stroke="#000000" d="M276.8694,-53.1768C292.8918,-55.3547 309.5262,-57.6157 325.0362,-59.7238"/>
<polygon fill="#000000" stroke="#000000" points="316.8526,-61.953 327.2814,-60.0847 317.9637,-55.0417 316.8526,-61.953"/>
</g>
<!-- hm -->
<g id="node3" class="node">
<title>hm</title>
<ellipse fill="#add8e6" stroke="#000000" cx="912.4729" cy="-69" rx="96.3833" ry="18"/>
<text text-anchor="middle" x="912.4729" y="-65.3" font-family="Times,serif" font-size="14.00" fill="#000000">Saliency Heatmap</text>
</g>
<!-- invis_out_hm -->
<!-- hm&#45;&gt;invis_out_hm -->
<g id="edge7" class="edge">
<title>hm&#45;&gt;invis_out_hm</title>
<path fill="none" stroke="#000000" d="M1008.7477,-69C1017.751,-69 1026.4561,-69 1034.374,-69"/>
<polygon fill="#000000" stroke="#000000" points="1034.6372,-72.5001 1044.6372,-69 1034.6371,-65.5001 1034.6372,-72.5001"/>
</g>
<!-- g -->
<g id="node5" class="node">
<title>g</title>
<polygon fill="#00ff00" stroke="#000000" points="780.2814,-87 487.2814,-87 487.2814,-51 780.2814,-51 780.2814,-87"/>
<text text-anchor="middle" x="633.7814" y="-65.3" font-family="Times,serif" font-size="14.00" fill="#000000">GenerateClassifierConfidenceSaliency</text>
</g>
<!-- p&#45;&gt;g -->
<g id="edge1" class="edge">
<title>p&#45;&gt;g</title>
<path fill="none" stroke="#000000" d="M451.4998,-69C459.5801,-69 468.1751,-69 477.0637,-69"/>
<polygon fill="#000000" stroke="#000000" points="477.2122,-72.5001 487.2121,-69 477.2121,-65.5001 477.2122,-72.5001"/>
</g>
<!-- g&#45;&gt;hm -->
<g id="edge4" class="edge">
<title>g&#45;&gt;hm</title>
<path fill="none" stroke="#000000" d="M788.2795,-69C794.2253,-69 800.1339,-69 805.9612,-69"/>
<polygon fill="#000000" stroke="#000000" points="806.0814,-72.5001 816.0813,-69 806.0813,-65.5001 806.0814,-72.5001"/>
</g>
<!-- invis_in_img -->
<!-- invis_in_img&#45;&gt;img -->
<g id="edge5" class="edge">
<title>invis_in_img&#45;&gt;img</title>
<path fill="none" stroke="#000000" d="M54.3075,-96C78.5417,-96 114.5731,-96 144.0573,-96"/>
<polygon fill="#000000" stroke="#000000" points="144.1832,-99.5001 154.1831,-96 144.1831,-92.5001 144.1832,-99.5001"/>
</g>
<!-- invis_in_bb -->
<!-- invis_in_bb&#45;&gt;bb -->
<g id="edge6" class="edge">
<title>invis_in_bb&#45;&gt;bb</title>
<path fill="none" stroke="#000000" d="M54.3075,-42C61.8023,-42 70.4255,-42 79.6344,-42"/>
<polygon fill="#000000" stroke="#000000" points="79.8312,-45.5001 89.8312,-42 79.8312,-38.5001 79.8312,-45.5001"/>
</g>
</g>
</svg>
