<?xml version="1.0" encoding="UTF-8" standalone="no"?>
<!DOCTYPE svg PUBLIC "-//W3C//DTD SVG 1.1//EN"
 "http://www.w3.org/Graphics/SVG/1.1/DTD/svg11.dtd">
<!-- Generated by graphviz version 2.40.1 (0)
 -->
<!-- Title: G Pages: 1 -->
<svg width="796pt" height="246pt"
 viewBox="0.00 0.00 796.26 246.00" xmlns="http://www.w3.org/2000/svg" xmlns:xlink="http://www.w3.org/1999/xlink">
<g id="graph0" class="graph" transform="scale(1 1) rotate(0) translate(4 242)">
<title>G</title>
<polygon fill="#ffffff" stroke="transparent" points="-4,4 -4,-242 792.2572,-242 792.2572,4 -4,4"/>
<g id="clust1" class="cluster">
<title>cluster_interface</title>
<polygon fill="none" stroke="#000000" points="74,-8 74,-230 714.2572,-230 714.2572,-8 74,-8"/>
<text text-anchor="middle" x="394.1286" y="-214.8" font-family="Times,serif" font-size="14.00" fill="#000000">GenerateClassifierConfidenceSaliency</text>
</g>
<g id="clust2" class="cluster">
<title>cluster_inputs</title>
<polygon fill="none" stroke="#000000" points="82,-16 82,-199 387.8743,-199 387.8743,-16 82,-16"/>
<text text-anchor="middle" x="234.9371" y="-183.8" font-family="Times,serif" font-size="14.00" fill="#000000">Inputs</text>
</g>
<g id="clust3" class="cluster">
<title>cluster_outputs</title>
<polygon fill="none" stroke="#000000" points="497.8743,-70 497.8743,-145 706.2572,-145 706.2572,-70 497.8743,-70"/>
<text text-anchor="middle" x="602.0657" y="-129.8" font-family="Times,serif" font-size="14.00" fill="#000000">Outputs</text>
</g>
<!-- img_conf -->
<g id="node1" class="node">
<title>img_conf</title>
<ellipse fill="#add8e6" stroke="#000000" cx="234.9371" cy="-150" rx="100.9827" ry="18"/>
<text text-anchor="middle" x="234.9371" y="-146.3" font-family="Times,serif" font-size="14.00" fill="#000000">Image Confidences</text>
</g>
<!-- algo -->
<g id="node5" class="node">
<title>algo</title>
<polygon fill="#ffffff" stroke="#ffffff" points="469.8743,-114 415.8743,-114 415.8743,-78 469.8743,-78 469.8743,-114"/>
<text text-anchor="middle" x="442.8743" y="-92.3" font-family="Times,serif" font-size="14.00" fill="#000000">...</text>
</g>
<!-- img_conf&#45;&gt;algo -->
<g id="edge1" class="edge">
<title>img_conf&#45;&gt;algo</title>
<path fill="none" stroke="#000000" d="M318.1332,-139.6834C341.0544,-135.6669 365.7035,-130.2377 387.8743,-123 394.0457,-120.9853 400.4006,-118.3967 406.5006,-115.6222"/>
<polygon fill="#000000" stroke="#000000" points="408.3043,-118.6393 415.8137,-111.1653 405.2825,-112.3251 408.3043,-118.6393"/>
</g>
<!-- mi_conf -->
<g id="node2" class="node">
<title>mi_conf</title>
<ellipse fill="#add8e6" stroke="#000000" cx="234.9371" cy="-96" rx="144.8743" ry="18"/>
<text text-anchor="middle" x="234.9371" y="-92.3" font-family="Times,serif" font-size="14.00" fill="#000000">Masked Images Confidences</text>
</g>
<!-- mi_conf&#45;&gt;algo -->
<g id="edge2" class="edge">
<title>mi_conf&#45;&gt;algo</title>
<path fill="none" stroke="#000000" d="M379.922,-96C389.0952,-96 397.7612,-96 405.5616,-96"/>
<polygon fill="#000000" stroke="#000000" points="405.6284,-99.5001 415.6284,-96 405.6284,-92.5001 405.6284,-99.5001"/>
</g>
<!-- masks -->
<g id="node3" class="node">
<title>masks</title>
<ellipse fill="#add8e6" stroke="#000000" cx="234.9371" cy="-42" rx="40.8928" ry="18"/>
<text text-anchor="middle" x="234.9371" y="-38.3" font-family="Times,serif" font-size="14.00" fill="#000000">Masks</text>
</g>
<!-- masks&#45;&gt;algo -->
<g id="edge3" class="edge">
<title>masks&#45;&gt;algo</title>
<path fill="none" stroke="#000000" d="M274.9768,-45.9439C306.2762,-49.7682 350.5812,-56.8256 387.8743,-69 394.0457,-71.0147 400.4006,-73.6033 406.5006,-76.3778"/>
<polygon fill="#000000" stroke="#000000" points="405.2825,-79.6749 415.8137,-80.8347 408.3043,-73.3607 405.2825,-79.6749"/>
</g>
<!-- hm -->
<g id="node4" class="node">
<title>hm</title>
<ellipse fill="#add8e6" stroke="#000000" cx="602.0657" cy="-96" rx="96.3833" ry="18"/>
<text text-anchor="middle" x="602.0657" y="-92.3" font-family="Times,serif" font-size="14.00" fill="#000000">Saliency Heatmap</text>
</g>
<!-- invis_out_hm -->
<!-- hm&#45;&gt;invis_out_hm -->
<g id="edge8" class="edge">
<title>hm&#45;&gt;invis_out_hm</title>
<path fill="none" stroke="#000000" d="M698.3405,-96C707.3438,-96 716.049,-96 723.9669,-96"/>
<polygon fill="#000000" stroke="#000000" points="724.23,-99.5001 734.23,-96 724.23,-92.5001 724.23,-99.5001"/>
</g>
<!-- algo&#45;&gt;hm -->
<g id="edge4" class="edge">
<title>algo&#45;&gt;hm</title>
<path fill="none" stroke="#000000" d="M469.8789,-96C477.4357,-96 486.1371,-96 495.3932,-96"/>
<polygon fill="#000000" stroke="#000000" points="495.6267,-99.5001 505.6267,-96 495.6267,-92.5001 495.6267,-99.5001"/>
</g>
<!-- invis_in_img_conf -->
<!-- invis_in_img_conf&#45;&gt;img_conf -->
<g id="edge5" class="edge">
<title>invis_in_img_conf&#45;&gt;img_conf</title>
<path fill="none" stroke="#000000" d="M54.1841,-150C72.3577,-150 97.6035,-150 123.4714,-150"/>
<polygon fill="#000000" stroke="#000000" points="123.7906,-153.5001 133.7905,-150 123.7905,-146.5001 123.7906,-153.5001"/>
</g>
<!-- invis_in_mi_conf -->
<!-- invis_in_mi_conf&#45;&gt;mi_conf -->
<g id="edge6" class="edge">
<title>invis_in_mi_conf&#45;&gt;mi_conf</title>
<path fill="none" stroke="#000000" d="M54.1841,-96C61.6192,-96 70.238,-96 79.5988,-96"/>
<polygon fill="#000000" stroke="#000000" points="79.6039,-99.5001 89.6039,-96 79.6038,-92.5001 79.6039,-99.5001"/>
</g>
<!-- invis_in_masks -->
<!-- invis_in_masks&#45;&gt;masks -->
<g id="edge7" class="edge">
<title>invis_in_masks&#45;&gt;masks</title>
<path fill="none" stroke="#000000" d="M54.1841,-42C86.9639,-42 142.7516,-42 183.6987,-42"/>
<polygon fill="#000000" stroke="#000000" points="183.7662,-45.5001 193.7662,-42 183.7661,-38.5001 183.7662,-45.5001"/>
</g>
</g>
</svg>
